<svg xmlns="http://www.w3.org/2000/svg" version="1.1" xmlns:xlink="http://www.w3.org/1999/xlink" xmlns:svgjs="http://svgjs.dev/svgjs" width="2000" height="1500" viewBox="0 0 2000 1500"><rect width="2000" height="1500" fill="#444444"></rect><g transform="matrix(0.75,0,0,0.75,249.090909090909,436.09649041767545)"><svg viewBox="0 0 396 166" data-background-color="#444444" preserveAspectRatio="xMidYMid meet" height="838" width="2000" xmlns="http://www.w3.org/2000/svg" xmlns:xlink="http://www.w3.org/1999/xlink"><g id="tight-bounds" transform="matrix(1,0,0,1,0.2400000000000091,-0.09151536886894007)"><svg viewBox="0 0 395.52 166.18303073773788" height="166.18303073773788" width="395.52"><g><svg viewBox="0 0 693.0442417302208 291.1918298090249" height="166.18303073773788" width="395.52"><g><svg viewBox="0 0 395.52 291.1918298090249" height="291.1918298090249" width="395.52"><g id="textblocktransform"><svg viewBox="0 0 395.52 291.1918298090249" height="291.1918298090249" width="395.52" id="textblock"><g><svg viewBox="0 0 395.52 224.89741324921138" height="224.89741324921138" width="395.52"><g transform="matrix(1,0,0,1,0,0)"><svg width="395.52" viewBox="1.8 -36.05 63.39 36.05" height="224.89741324921138" data-palette-color="#ffffff"><path d="M1.8 0L2.95-35.5 12.1-35.5 12.1-31.1 5.95-31.1 5.95-21.15 11.4-21.15 11.4-18.65 6.2-17.75 6.2 0 1.8 0ZM17.35 0Q16.15 0 15.47-0.48 14.8-0.95 14.8-1.8L14.8-1.8 14.8-26.9Q14.8-29.1 17.35-29.1L17.35-29.1 22.55-29.1Q23.5-29.1 24.1-28.33 24.7-27.55 24.7-26.55L24.7-26.55 24.7-14.5 22.65-12.9 18.25-13.15 18.2-3.25Q18.2-2.85 18.6-2.85L18.6-2.85 21.55-2.8 22.4-6.1 24.55-6.1 24.55 0 17.35 0ZM18.1-15.9L20.9-15.9Q21.15-15.9 21.25-16 21.35-16.1 21.35-16.45L21.35-16.45 21.65-25.75Q21.65-26.2 21.2-26.2L21.2-26.2 18.3-26.2Q18-26.2 17.92-26.1 17.85-26 17.85-25.75L17.85-25.75 18.1-15.9ZM29.65 0L28.7-36.05 31.9-36.05 31.9-16.8 32.95-16.2 35.2-17.65 35.59-29.05 39.15-29.05 37.4-16.65 35.45-15.3 38.25-13.7 38.75 0 35.45 0 35.45-11.65 32.84-13.7 32.4-13.35 32.4 0 29.65 0ZM45.04 0Q43.84 0 43.17-0.48 42.49-0.95 42.49-1.8L42.49-1.8 42.49-26.9Q42.49-29.1 45.04-29.1L45.04-29.1 50.24-29.1Q51.19-29.1 51.79-28.33 52.39-27.55 52.39-26.55L52.39-26.55 52.39-14.5 50.34-12.9 45.94-13.15 45.89-3.25Q45.89-2.85 46.29-2.85L46.29-2.85 49.24-2.8 50.09-6.1 52.24-6.1 52.24 0 45.04 0ZM45.79-15.9L48.59-15.9Q48.84-15.9 48.94-16 49.04-16.1 49.04-16.45L49.04-16.45 49.34-25.75Q49.34-26.2 48.89-26.2L48.89-26.2 45.99-26.2Q45.69-26.2 45.62-26.1 45.54-26 45.54-25.75L45.54-25.75 45.79-15.9ZM56.54 0L56.54-28.7Q57.59-28.95 58.67-29.05 59.74-29.15 62.14-29.15L62.14-29.15Q63.49-29.15 64.34-28.48 65.19-27.8 65.19-26.75L65.19-26.75 65.19-22.5 62.59-22.5 62.34-25.8Q62.34-25.95 62.27-26 62.19-26.05 61.89-26.1L61.89-26.1 59.74-26.35 59.84 0 56.54 0Z" opacity="1" transform="matrix(1,0,0,1,0,0)" fill="#ffffff" class="wordmark-text-0" data-fill-palette-color="primary" id="text-0"></path></svg></g></svg></g><g transform="matrix(1,0,0,1,19.77600000000001,277.99029497943224)"><svg viewBox="0 0 375.74399999999997 13.201534829592685" height="13.201534829592685" width="375.74399999999997"><g transform="matrix(1,0,0,1,0,0)"><svg width="375.74399999999997" viewBox="2.7 -31.05 902.17 31.7" height="13.201534829592685" data-palette-color="#00d1cd"><path d="M26.65-27.05L26.65-27.05Q26.65-26.4 26.23-25.88 25.8-25.35 25.25-25.1L25.25-25.1Q24-26 22.23-26.8 20.45-27.6 17.65-27.6L17.65-27.6Q14.6-27.6 12.18-26.2 9.75-24.8 8.33-22.03 6.9-19.25 6.9-15.15L6.9-15.15Q6.9-9 9.93-5.9 12.95-2.8 17.8-2.8L17.8-2.8Q20.4-2.8 22.35-3.55 24.3-4.3 25.55-5.25L25.55-5.25Q26.05-5.05 26.5-4.53 26.95-4 26.95-3.3L26.95-3.3Q26.95-2.8 26.68-2.33 26.4-1.85 25.75-1.4L25.75-1.4Q24.6-0.6 22.6 0.03 20.6 0.65 17.5 0.65L17.5 0.65Q13.35 0.65 9.98-1.13 6.6-2.9 4.65-6.4 2.7-9.9 2.7-15.15L2.7-15.15Q2.7-20.4 4.73-23.95 6.75-27.5 10.08-29.28 13.4-31.05 17.35-31.05L17.35-31.05Q20.1-31.05 22.2-30.45 24.3-29.85 25.48-28.93 26.65-28 26.65-27.05ZM45.6 0.65L45.6 0.65Q41.85 0.65 39.2-0.73 36.55-2.1 35.17-4.63 33.8-7.15 33.8-10.5L33.8-10.5 33.8-14.6 37.85-14.6 37.85-10.85Q37.85-6.85 40.07-4.83 42.3-2.8 45.6-2.8L45.6-2.8Q48.9-2.8 51.12-4.83 53.35-6.85 53.35-10.85L53.35-10.85 53.35-14.6 57.45-14.6 57.45-10.5Q57.45-7.15 56.07-4.63 54.7-2.1 52.05-0.73 49.4 0.65 45.6 0.65ZM37.85-28.8L37.85-12.55 33.8-12.55 33.8-30.3Q34.05-30.4 34.57-30.53 35.1-30.65 35.7-30.65L35.7-30.65Q36.8-30.65 37.32-30.23 37.85-29.8 37.85-28.8L37.85-28.8ZM57.45-28.8L57.45-12.55 53.35-12.55 53.35-30.3Q53.6-30.4 54.12-30.53 54.65-30.65 55.25-30.65L55.25-30.65Q56.35-30.65 56.9-30.23 57.45-29.8 57.45-28.8L57.45-28.8ZM74.7-2.75L74.7-2.75Q78.05-2.75 79.77-4.28 81.5-5.8 81.5-8.2L81.5-8.2Q81.5-10.25 80.17-11.6 78.84-12.95 76-13.75L76-13.75 71.65-15.05Q69.55-15.7 68-16.73 66.45-17.75 65.62-19.28 64.8-20.8 64.8-22.85L64.8-22.85Q64.8-26.7 67.59-28.88 70.4-31.05 75.05-31.05L75.05-31.05Q77.75-31.05 79.87-30.48 82-29.9 83.22-29 84.45-28.1 84.45-27.1L84.45-27.1Q84.45-26.45 84.09-25.93 83.75-25.4 83.2-25.1L83.2-25.1Q81.95-26.1 79.82-26.85 77.7-27.6 75.2-27.6L75.2-27.6Q72.3-27.6 70.59-26.33 68.9-25.05 68.9-22.85L68.9-22.85Q68.9-21.1 70.12-20 71.34-18.9 74.09-18.1L74.09-18.1 77.15-17.2Q81.09-16.1 83.37-14 85.65-11.9 85.65-8.2L85.65-8.2Q85.65-4.25 82.77-1.8 79.9 0.65 74.7 0.65L74.7 0.65Q71.65 0.65 69.37-0.03 67.09-0.7 65.82-1.73 64.55-2.75 64.55-3.75L64.55-3.75Q64.55-4.6 65.07-5.18 65.59-5.75 66.3-6L66.3-6Q67.45-4.9 69.55-3.83 71.65-2.75 74.7-2.75ZM111.34-26.95L101.04-26.95 100.79-30.4 112.44-30.4Q112.59-30.2 112.74-29.75 112.89-29.3 112.89-28.8L112.89-28.8Q112.89-28 112.49-27.48 112.09-26.95 111.34-26.95L111.34-26.95ZM90.79-30.4L101.14-30.4 101.39-26.95 89.69-26.95Q89.54-27.2 89.39-27.65 89.24-28.1 89.24-28.6L89.24-28.6Q89.24-29.45 89.64-29.93 90.04-30.4 90.79-30.4L90.79-30.4ZM99.04-1.6L99.04-28.3 103.09-28.3 103.09-0.1Q102.84 0 102.32 0.13 101.79 0.25 101.24 0.25L101.24 0.25Q100.14 0.25 99.59-0.2 99.04-0.65 99.04-1.6L99.04-1.6ZM145.84-15.2L145.84-15.2Q145.84-10 143.94-6.48 142.04-2.95 138.77-1.15 135.49 0.65 131.34 0.65L131.34 0.65Q127.24 0.65 123.94-1.15 120.64-2.95 118.74-6.48 116.84-10 116.84-15.2L116.84-15.2Q116.84-20.4 118.79-23.93 120.74-27.45 124.02-29.25 127.29-31.05 131.34-31.05L131.34-31.05Q135.44-31.05 138.72-29.25 141.99-27.45 143.92-23.93 145.84-20.4 145.84-15.2ZM141.69-15.2L141.69-15.2Q141.69-21.15 138.87-24.38 136.04-27.6 131.34-27.6L131.34-27.6Q126.69-27.6 123.87-24.38 121.04-21.15 121.04-15.2L121.04-15.2Q121.04-9.25 123.84-6.03 126.64-2.8 131.34-2.8L131.34-2.8Q136.09-2.8 138.89-6.03 141.69-9.25 141.69-15.2ZM170.34-7.9L170.34-7.9Q169.99-7.65 169.41-7.45 168.84-7.25 168.14-7.25L168.14-7.25Q167.34-7.25 166.71-7.5 166.09-7.75 165.84-8.3L165.84-8.3Q163.19-13.9 161.21-18.55 159.24-23.2 158.04-26.25L158.04-26.25 157.84-26.25Q157.69-22.5 157.51-19.25 157.34-16 157.14-12.98 156.94-9.95 156.76-6.78 156.59-3.6 156.34 0L156.34 0Q156.04 0.1 155.56 0.2 155.09 0.3 154.54 0.3L154.54 0.3Q153.44 0.3 152.99-0.18 152.54-0.65 152.54-1.45L152.54-1.45Q152.54-2.05 152.66-4.23 152.79-6.4 152.96-9.55 153.14-12.7 153.39-16.28 153.64-19.85 153.91-23.33 154.19-26.8 154.44-29.6L154.44-29.6Q154.84-29.95 155.59-30.25 156.34-30.55 157.29-30.55L157.29-30.55Q158.44-30.55 159.24-30.1 160.04-29.65 160.49-28.7L160.49-28.7Q161.79-26.15 163.09-23.15 164.39-20.15 165.64-17.15 166.89-14.15 168.04-11.5L168.04-11.5 168.24-11.5Q170.44-16.8 172.61-21.7 174.79-26.6 176.29-30.05L176.29-30.05Q176.74-30.3 177.44-30.43 178.14-30.55 178.74-30.55L178.74-30.55Q179.89-30.55 180.56-30.18 181.24-29.8 181.44-28.95L181.44-28.95Q181.64-28.1 181.89-26.05 182.14-24 182.39-21.23 182.64-18.45 182.86-15.4 183.09-12.35 183.29-9.4 183.49-6.45 183.66-4.08 183.84-1.7 183.89-0.3L183.89-0.3Q183.44 0 182.94 0.15 182.44 0.3 181.79 0.3L181.79 0.3Q181.04 0.3 180.46-0.08 179.89-0.45 179.79-1.45L179.79-1.45Q179.49-6.3 179.21-11.03 178.94-15.75 178.74-19.7 178.54-23.65 178.39-26.15L178.39-26.15 178.19-26.15Q177.09-23.4 175.19-19.07 173.29-14.75 170.34-7.9ZM192.09-1.6L192.09-18.15 196.14-18.15 196.14-0.1Q195.89 0 195.39 0.13 194.89 0.25 194.29 0.25L194.29 0.25Q193.19 0.25 192.64-0.2 192.09-0.65 192.09-1.6L192.09-1.6ZM196.14-28.8L196.14-14.8 192.09-14.8 192.09-30.3Q192.34-30.4 192.86-30.53 193.39-30.65 193.99-30.65L193.99-30.65Q195.09-30.65 195.61-30.23 196.14-29.8 196.14-28.8L196.14-28.8ZM204.23-4.4L204.23-4.4 223.23-30.4 224.83-30.4Q225.78-29.6 225.78-28.5L225.78-28.5Q225.78-27.8 225.51-27.25 225.23-26.7 224.73-26L224.73-26 205.78 0 204.13 0Q203.73-0.35 203.46-0.85 203.18-1.35 203.18-1.9L203.18-1.9Q203.18-2.6 203.46-3.18 203.73-3.75 204.23-4.4ZM224.58 0L205.18 0 205.33-3.45 225.63-3.45Q225.83-3.2 225.98-2.78 226.13-2.35 226.13-1.8L226.13-1.8Q226.13-1 225.71-0.5 225.28 0 224.58 0L224.58 0ZM205.13-30.4L223.88-30.4 223.78-26.95 204.03-26.95Q203.88-27.2 203.71-27.65 203.53-28.1 203.53-28.6L203.53-28.6Q203.53-29.45 203.96-29.93 204.38-30.4 205.13-30.4L205.13-30.4ZM232.98-2.2L232.98-18.3 237.03-18.3 237.03-0.4Q236.83-0.35 236.28-0.18 235.73 0 235.18 0L235.18 0Q234.18 0 233.58-0.63 232.98-1.25 232.98-2.2L232.98-2.2ZM237.03-30L237.03-12.4 232.98-12.45 232.98-28.2Q232.98-29.2 233.58-29.8 234.18-30.4 235.18-30.4L235.18-30.4Q235.73-30.4 236.28-30.25 236.83-30.1 237.03-30L237.03-30ZM249.13-13.9L235.18-13.9 235.18-17.3 250.23-17.3Q250.38-17.1 250.53-16.65 250.68-16.2 250.68-15.7L250.68-15.7Q250.68-14.9 250.28-14.4 249.88-13.9 249.13-13.9L249.13-13.9ZM250.93 0L235.18 0 235.18-3.4 252.03-3.4Q252.18-3.2 252.33-2.78 252.48-2.35 252.48-1.8L252.48-1.8Q252.48-1 252.08-0.5 251.68 0 250.93 0L250.93 0ZM250.68-26.95L235.18-26.95 235.18-30.4 251.78-30.4Q251.93-30.2 252.08-29.75 252.23-29.3 252.23-28.8L252.23-28.8Q252.23-28 251.83-27.48 251.43-26.95 250.68-26.95L250.68-26.95ZM279.98-27.25L279.98-27.25 279.78-27.25Q279.03-25.15 278-22.25 276.98-19.35 275.9-16.28 274.83-13.2 273.88-10.55L273.88-10.55 273.63-9.8Q273.33-8.9 272.88-7.55 272.43-6.2 271.93-4.73 271.43-3.25 270.98-1.98 270.53-0.7 270.28 0.1L270.28 0.1Q269.93 0.25 269.55 0.33 269.18 0.4 268.63 0.4L268.63 0.4Q267.83 0.4 267.2-0.03 266.58-0.45 266.58-1.4L266.58-1.4Q266.58-1.85 266.73-2.33 266.88-2.8 267.08-3.35L267.08-3.35Q267.68-5.05 268.55-7.5 269.43-9.95 270.48-12.85 271.53-15.75 272.68-18.8 273.83-21.85 274.93-24.75 276.03-27.65 276.98-30.05L276.98-30.05Q277.38-30.25 278.18-30.45 278.98-30.65 279.83-30.65L279.83-30.65Q280.83-30.65 281.75-30.35 282.68-30.05 282.93-29.35L282.93-29.35Q284.13-26.45 285.5-22.78 286.88-19.1 288.28-15.13 289.68-11.15 290.95-7.4 292.23-3.65 293.23-0.6L293.23-0.6Q292.88-0.15 292.3 0.13 291.73 0.4 291.03 0.4L291.03 0.4Q290.08 0.4 289.58-0.03 289.08-0.45 288.73-1.45L288.73-1.45 285.98-9.6 285.58-11Q284.58-14.05 283.5-17.15 282.43-20.25 281.5-22.9 280.58-25.55 279.98-27.25ZM287.73-8.1L271.68-8.1 272.98-11.45 286.93-11.45 287.73-8.1ZM321.32-27.05L321.32-27.05Q321.32-26.4 320.9-25.88 320.47-25.35 319.92-25.1L319.92-25.1Q318.67-26 316.9-26.8 315.12-27.6 312.32-27.6L312.32-27.6Q309.27-27.6 306.85-26.2 304.42-24.8 303-22.03 301.57-19.25 301.57-15.15L301.57-15.15Q301.57-9 304.6-5.9 307.62-2.8 312.47-2.8L312.47-2.8Q315.07-2.8 317.02-3.55 318.97-4.3 320.22-5.25L320.22-5.25Q320.72-5.05 321.17-4.53 321.62-4 321.62-3.3L321.62-3.3Q321.62-2.8 321.35-2.33 321.07-1.85 320.42-1.4L320.42-1.4Q319.27-0.6 317.27 0.03 315.27 0.65 312.17 0.65L312.17 0.65Q308.02 0.65 304.65-1.13 301.27-2.9 299.32-6.4 297.37-9.9 297.37-15.15L297.37-15.15Q297.37-20.4 299.4-23.95 301.42-27.5 304.75-29.28 308.07-31.05 312.02-31.05L312.02-31.05Q314.77-31.05 316.87-30.45 318.97-29.85 320.15-28.93 321.32-28 321.32-27.05ZM350.72-27.05L350.72-27.05Q350.72-26.4 350.3-25.88 349.87-25.35 349.32-25.1L349.32-25.1Q348.07-26 346.3-26.8 344.52-27.6 341.72-27.6L341.72-27.6Q338.67-27.6 336.25-26.2 333.82-24.8 332.4-22.03 330.97-19.25 330.97-15.15L330.97-15.15Q330.97-9 334-5.9 337.02-2.8 341.87-2.8L341.87-2.8Q344.47-2.8 346.42-3.55 348.37-4.3 349.62-5.25L349.62-5.25Q350.12-5.05 350.57-4.53 351.02-4 351.02-3.3L351.02-3.3Q351.02-2.8 350.75-2.33 350.47-1.85 349.82-1.4L349.82-1.4Q348.67-0.6 346.67 0.03 344.67 0.65 341.57 0.65L341.57 0.65Q337.42 0.65 334.05-1.13 330.67-2.9 328.72-6.4 326.77-9.9 326.77-15.15L326.77-15.15Q326.77-20.4 328.8-23.95 330.82-27.5 334.15-29.28 337.47-31.05 341.42-31.05L341.42-31.05Q344.17-31.05 346.27-30.45 348.37-29.85 349.55-28.93 350.72-28 350.72-27.05ZM385.17-15.2L385.17-15.2Q385.17-10 383.27-6.48 381.37-2.95 378.09-1.15 374.82 0.65 370.67 0.65L370.67 0.65Q366.57 0.65 363.27-1.15 359.97-2.95 358.07-6.48 356.17-10 356.17-15.2L356.17-15.2Q356.17-20.4 358.12-23.93 360.07-27.45 363.34-29.25 366.62-31.05 370.67-31.05L370.67-31.05Q374.77-31.05 378.04-29.25 381.32-27.45 383.24-23.93 385.17-20.4 385.17-15.2ZM381.02-15.2L381.02-15.2Q381.02-21.15 378.19-24.38 375.37-27.6 370.67-27.6L370.67-27.6Q366.02-27.6 363.19-24.38 360.37-21.15 360.37-15.2L360.37-15.2Q360.37-9.25 363.17-6.03 365.97-2.8 370.67-2.8L370.67-2.8Q375.42-2.8 378.22-6.03 381.02-9.25 381.02-15.2ZM396.42-27.1L396.42-14.9 402.17-14.9Q405.87-14.9 407.97-16.5 410.06-18.1 410.06-21.25L410.06-21.25Q410.06-24.35 407.87-25.95 405.67-27.55 401.56-27.55L401.56-27.55Q400.22-27.55 398.84-27.43 397.47-27.3 396.42-27.1L396.42-27.1ZM402.17-11.5L402.17-11.5 392.37-11.5 392.37-28.2Q392.37-29 392.79-29.43 393.22-29.85 394.02-30.1L394.02-30.1Q395.47-30.55 397.59-30.75 399.72-30.95 401.72-30.95L401.72-30.95Q407.97-30.95 411.06-28.4 414.17-25.85 414.17-21.25L414.17-21.25Q414.17-18.3 412.81-16.1 411.47-13.9 408.81-12.7 406.17-11.5 402.17-11.5ZM410.47-1.3L402.27-12.8 405.27-14.3Q406.67-12.55 408.17-10.65 409.67-8.75 411.06-6.95 412.47-5.15 413.56-3.73 414.67-2.3 415.27-1.5L415.27-1.5Q415.06-0.65 414.39-0.15 413.72 0.35 413.02 0.35L413.02 0.35Q412.17 0.35 411.62-0.08 411.06-0.5 410.47-1.3L410.47-1.3ZM392.37-1.6L392.37-12.6 396.47-12.6 396.47-0.1Q396.17 0 395.67 0.13 395.17 0.25 394.56 0.25L394.56 0.25Q393.47 0.25 392.92-0.2 392.37-0.65 392.37-1.6L392.37-1.6ZM443.11-15.55L443.11-15.55Q443.11-9.3 440.11-6.08 437.11-2.85 431.26-2.85L431.26-2.85Q429.81-2.85 428.44-2.95 427.06-3.05 425.86-3.35L425.86-3.35 425.86-27.15Q426.86-27.35 428.06-27.45 429.26-27.55 430.81-27.55L430.81-27.55Q434.21-27.55 436.99-26.33 439.76-25.1 441.44-22.48 443.11-19.85 443.11-15.55ZM447.26-15.55L447.26-15.55Q447.26-20.7 445.19-24.1 443.11-27.5 439.44-29.23 435.76-30.95 430.86-30.95L430.86-30.95Q428.91-30.95 426.96-30.8 425.01-30.65 423.46-30.15L423.46-30.15Q422.66-29.9 422.24-29.48 421.81-29.05 421.81-28.25L421.81-28.25 421.81-2.55Q421.81-0.9 423.91-0.25L423.91-0.25Q425.71 0.3 427.74 0.43 429.76 0.55 431.31 0.55L431.31 0.55Q436.16 0.55 439.74-1.2 443.31-2.95 445.29-6.53 447.26-10.1 447.26-15.55ZM454.46-1.6L454.46-18.15 458.51-18.15 458.51-0.1Q458.26 0 457.76 0.13 457.26 0.25 456.66 0.25L456.66 0.25Q455.56 0.25 455.01-0.2 454.46-0.65 454.46-1.6L454.46-1.6ZM458.51-28.8L458.51-14.8 454.46-14.8 454.46-30.3Q454.71-30.4 455.24-30.53 455.76-30.65 456.36-30.65L456.36-30.65Q457.46-30.65 457.99-30.23 458.51-29.8 458.51-28.8L458.51-28.8ZM467.51-1.55L467.51-26.95 470.91-27.25Q471.11-25.7 471.26-23.6 471.41-21.5 471.48-19.28 471.56-17.05 471.56-15.05L471.56-15.05 471.56-0.1Q471.31 0 470.78 0.13 470.26 0.25 469.71 0.25L469.71 0.25Q468.61 0.25 468.06-0.18 467.51-0.6 467.51-1.55L467.51-1.55ZM491.61-28.85L491.61-3.45 488.16-3.15Q487.66-7.35 487.58-11.73 487.51-16.1 487.51-20.2L487.51-20.2 487.51-30.3Q487.81-30.4 488.31-30.53 488.81-30.65 489.41-30.65L489.41-30.65Q490.51-30.65 491.06-30.23 491.61-29.8 491.61-28.85L491.61-28.85ZM487.86-4L491.61-4.95 491.61-5.15 491.61-0.55Q491.16-0.2 490.46 0.05 489.76 0.3 488.91 0.3L488.91 0.3Q487.71 0.3 486.86-0.18 486.01-0.65 485.31-1.9L485.31-1.9 475.81-17.9Q475.06-19.25 474.16-20.88 473.26-22.5 472.46-23.98 471.66-25.45 471.21-26.4L471.21-26.4 467.51-25.45 467.51-29.8Q467.91-30.2 468.63-30.45 469.36-30.7 470.21-30.7L470.21-30.7Q471.41-30.7 472.26-30.23 473.11-29.75 473.81-28.5L473.81-28.5 483.36-12.5Q484.16-11.15 485.03-9.53 485.91-7.9 486.66-6.43 487.41-4.95 487.86-4L487.86-4ZM524.56-14.35L524.56-14.35 524.56-3.5Q524.56-2.6 524.03-1.98 523.51-1.35 522.46-0.85L522.46-0.85Q521.21-0.2 519.01 0.23 516.81 0.65 514.56 0.65L514.56 0.65Q509.91 0.65 506.33-1.05 502.76-2.75 500.76-6.25 498.76-9.75 498.76-15.15L498.76-15.15Q498.76-20.5 500.83-24.03 502.91-27.55 506.36-29.3 509.81-31.05 513.91-31.05L513.91-31.05Q516.76-31.05 518.91-30.45 521.06-29.85 522.26-28.95 523.46-28.05 523.46-27.1L523.46-27.1Q523.46-26.45 523.06-25.93 522.66-25.4 522.11-25.15L522.11-25.15Q520.76-26.05 518.91-26.83 517.06-27.6 514.16-27.6L514.16-27.6Q511.01-27.6 508.46-26.2 505.91-24.8 504.43-22.03 502.96-19.25 502.96-15.15L502.96-15.15Q502.96-10.85 504.48-8.13 506.01-5.4 508.66-4.1 511.31-2.8 514.61-2.8L514.61-2.8Q516.41-2.8 518.01-3.1 519.61-3.4 520.51-3.85L520.51-3.85 520.51-13.05 512.96-13.05Q512.81-13.3 512.66-13.73 512.51-14.15 512.51-14.65L512.51-14.65Q512.51-15.5 512.91-15.98 513.31-16.45 514.06-16.45L514.06-16.45 522.41-16.45Q523.31-16.45 523.93-15.88 524.56-15.3 524.56-14.35ZM561.35-26.95L551.05-26.95 550.8-30.4 562.45-30.4Q562.6-30.2 562.75-29.75 562.9-29.3 562.9-28.8L562.9-28.8Q562.9-28 562.5-27.48 562.1-26.95 561.35-26.95L561.35-26.95ZM540.8-30.4L551.15-30.4 551.4-26.95 539.7-26.95Q539.55-27.2 539.4-27.65 539.25-28.1 539.25-28.6L539.25-28.6Q539.25-29.45 539.65-29.93 540.05-30.4 540.8-30.4L540.8-30.4ZM549.05-1.6L549.05-28.3 553.1-28.3 553.1-0.1Q552.85 0 552.33 0.13 551.8 0.25 551.25 0.25L551.25 0.25Q550.15 0.25 549.6-0.2 549.05-0.65 549.05-1.6L549.05-1.6ZM595.85-15.2L595.85-15.2Q595.85-10 593.95-6.48 592.05-2.95 588.77-1.15 585.5 0.65 581.35 0.65L581.35 0.65Q577.25 0.65 573.95-1.15 570.65-2.95 568.75-6.48 566.85-10 566.85-15.2L566.85-15.2Q566.85-20.4 568.8-23.93 570.75-27.45 574.02-29.25 577.3-31.05 581.35-31.05L581.35-31.05Q585.45-31.05 588.72-29.25 592-27.45 593.92-23.93 595.85-20.4 595.85-15.2ZM591.7-15.2L591.7-15.2Q591.7-21.15 588.87-24.38 586.05-27.6 581.35-27.6L581.35-27.6Q576.7-27.6 573.87-24.38 571.05-21.15 571.05-15.2L571.05-15.2Q571.05-9.25 573.85-6.03 576.65-2.8 581.35-2.8L581.35-2.8Q586.1-2.8 588.9-6.03 591.7-9.25 591.7-15.2ZM624.29-10.9L624.29-10.9 620.74-10.9Q619.34-13 617.82-15.33 616.29-17.65 614.82-20.05 613.34-22.45 612.02-24.78 610.69-27.1 609.64-29.1L609.64-29.1Q609.84-29.65 610.39-30.18 610.94-30.7 611.84-30.7L611.84-30.7Q612.79-30.7 613.32-30.2 613.84-29.7 614.39-28.7L614.39-28.7Q615.04-27.55 615.87-26.13 616.69-24.7 617.59-23.13 618.49-21.55 619.39-20 620.29-18.45 621.07-17.1 621.84-15.75 622.44-14.75L622.44-14.75 622.64-14.75Q624.39-17.65 625.84-20.25 627.29-22.85 628.64-25.35 629.99-27.85 631.29-30.35L631.29-30.35Q631.59-30.55 632.04-30.63 632.49-30.7 632.84-30.7L632.84-30.7Q633.79-30.7 634.27-30.25 634.74-29.8 634.74-29L634.74-29Q634.74-28.5 633.97-26.88 633.19-25.25 631.79-22.83 630.39-20.4 628.49-17.35 626.59-14.3 624.29-10.9ZM620.49-1.6L620.49-12.85 624.54-12.85 624.54-0.1Q624.29 0 623.77 0.13 623.24 0.25 622.69 0.25L622.69 0.25Q621.59 0.25 621.04-0.2 620.49-0.65 620.49-1.6L620.49-1.6ZM667.79-15.2L667.79-15.2Q667.79-10 665.89-6.48 663.99-2.95 660.71-1.15 657.44 0.65 653.29 0.65L653.29 0.65Q649.19 0.65 645.89-1.15 642.59-2.95 640.69-6.48 638.79-10 638.79-15.2L638.79-15.2Q638.79-20.4 640.74-23.93 642.69-27.45 645.96-29.25 649.24-31.05 653.29-31.05L653.29-31.05Q657.39-31.05 660.66-29.25 663.94-27.45 665.86-23.93 667.79-20.4 667.79-15.2ZM663.64-15.2L663.64-15.2Q663.64-21.15 660.81-24.38 657.99-27.6 653.29-27.6L653.29-27.6Q648.64-27.6 645.81-24.38 642.99-21.15 642.99-15.2L642.99-15.2Q642.99-9.25 645.79-6.03 648.59-2.8 653.29-2.8L653.29-2.8Q658.04-2.8 660.84-6.03 663.64-9.25 663.64-15.2ZM686.74 0.65L686.74 0.65Q682.99 0.65 680.34-0.73 677.69-2.1 676.31-4.63 674.94-7.15 674.94-10.5L674.94-10.5 674.94-14.6 678.99-14.6 678.99-10.85Q678.99-6.85 681.21-4.83 683.44-2.8 686.74-2.8L686.74-2.8Q690.04-2.8 692.26-4.83 694.49-6.85 694.49-10.85L694.49-10.85 694.49-14.6 698.59-14.6 698.59-10.5Q698.59-7.15 697.21-4.63 695.84-2.1 693.19-0.73 690.54 0.65 686.74 0.65ZM678.99-28.8L678.99-12.55 674.94-12.55 674.94-30.3Q675.19-30.4 675.71-30.53 676.24-30.65 676.84-30.65L676.84-30.65Q677.94-30.65 678.46-30.23 678.99-29.8 678.99-28.8L678.99-28.8ZM698.59-28.8L698.59-12.55 694.49-12.55 694.49-30.3Q694.74-30.4 695.26-30.53 695.79-30.65 696.39-30.65L696.39-30.65Q697.49-30.65 698.04-30.23 698.59-29.8 698.59-28.8L698.59-28.8ZM711.48-27.1L711.48-14.9 717.23-14.9Q720.93-14.9 723.03-16.5 725.13-18.1 725.13-21.25L725.13-21.25Q725.13-24.35 722.93-25.95 720.73-27.55 716.63-27.55L716.63-27.55Q715.28-27.55 713.91-27.43 712.53-27.3 711.48-27.1L711.48-27.1ZM717.23-11.5L717.23-11.5 707.43-11.5 707.43-28.2Q707.43-29 707.86-29.43 708.28-29.85 709.08-30.1L709.08-30.1Q710.53-30.55 712.66-30.75 714.78-30.95 716.78-30.95L716.78-30.95Q723.03-30.95 726.13-28.4 729.23-25.85 729.23-21.25L729.23-21.25Q729.23-18.3 727.88-16.1 726.53-13.9 723.88-12.7 721.23-11.5 717.23-11.5ZM725.53-1.3L717.33-12.8 720.33-14.3Q721.73-12.55 723.23-10.65 724.73-8.75 726.13-6.95 727.53-5.15 728.63-3.73 729.73-2.3 730.33-1.5L730.33-1.5Q730.13-0.65 729.46-0.15 728.78 0.35 728.08 0.35L728.08 0.35Q727.23 0.35 726.68-0.08 726.13-0.5 725.53-1.3L725.53-1.3ZM707.43-1.6L707.43-12.6 711.53-12.6 711.53-0.1Q711.23 0 710.73 0.13 710.23 0.25 709.63 0.25L709.63 0.25Q708.53 0.25 707.98-0.2 707.43-0.65 707.43-1.6L707.43-1.6ZM760.38-22.85L760.38-22.85Q760.78-23.05 761.38-23.2 761.98-23.35 762.63-23.35L762.63-23.35Q763.63-23.35 764.3-23.03 764.98-22.7 765.18-22.05L765.18-22.05Q766.43-18.45 767.45-15.38 768.48-12.3 769.4-9.43 770.33-6.55 771.28-3.5L771.28-3.5 771.48-3.5Q772.43-8 773.33-12.28 774.23-16.55 775.08-20.95 775.93-25.35 776.63-30.35L776.63-30.35Q777.33-30.7 778.33-30.7L778.33-30.7Q779.28-30.7 779.83-30.28 780.38-29.85 780.38-29L780.38-29Q780.38-28.05 780.1-26.13 779.83-24.2 779.35-21.63 778.88-19.05 778.25-16.18 777.63-13.3 776.93-10.43 776.23-7.55 775.53-5 774.83-2.45 774.18-0.55L774.18-0.55Q773.73-0.3 773.03-0.08 772.33 0.15 771.43 0.15L771.43 0.15Q770.33 0.15 769.58-0.2 768.83-0.55 768.58-1.15L768.58-1.15Q767.88-2.9 766.88-5.78 765.88-8.65 764.8-12.08 763.73-15.5 762.73-18.85L762.73-18.85Q761.78-15.55 760.68-12 759.58-8.45 758.55-5.4 757.53-2.35 756.73-0.5L756.73-0.5Q756.38-0.3 755.65-0.08 754.93 0.15 754.03 0.15L754.03 0.15Q752.93 0.15 752.2-0.23 751.48-0.6 751.23-1.15L751.23-1.15Q750.73-2.4 750-4.9 749.28-7.4 748.48-10.63 747.68-13.85 746.9-17.32 746.13-20.8 745.45-24.03 744.78-27.25 744.38-29.75L744.38-29.75Q744.73-30.1 745.33-30.4 745.93-30.7 746.63-30.7L746.63-30.7Q747.53-30.7 748.03-30.28 748.53-29.85 748.73-28.85L748.73-28.85Q749.38-25.7 749.98-22.75 750.58-19.8 751.2-16.8 751.83-13.8 752.53-10.53 753.23-7.25 754.08-3.5L754.08-3.5 754.28-3.5Q754.98-5.75 755.63-7.8 756.28-9.85 756.98-12.03 757.68-14.2 758.5-16.8 759.33-19.4 760.38-22.85ZM787.08-1.6L787.08-18.15 791.13-18.15 791.13-0.1Q790.88 0 790.38 0.13 789.88 0.25 789.28 0.25L789.28 0.25Q788.18 0.25 787.63-0.2 787.08-0.65 787.08-1.6L787.08-1.6ZM791.13-28.8L791.13-14.8 787.08-14.8 787.08-30.3Q787.33-30.4 787.85-30.53 788.38-30.65 788.98-30.65L788.98-30.65Q790.08-30.65 790.6-30.23 791.13-29.8 791.13-28.8L791.13-28.8ZM808.52-2.75L808.52-2.75Q811.87-2.75 813.6-4.28 815.32-5.8 815.32-8.2L815.32-8.2Q815.32-10.25 814-11.6 812.67-12.95 809.82-13.75L809.82-13.75 805.47-15.05Q803.37-15.7 801.82-16.73 800.27-17.75 799.45-19.28 798.62-20.8 798.62-22.85L798.62-22.85Q798.62-26.7 801.42-28.88 804.22-31.05 808.87-31.05L808.87-31.05Q811.57-31.05 813.7-30.48 815.82-29.9 817.05-29 818.27-28.1 818.27-27.1L818.27-27.1Q818.27-26.45 817.92-25.93 817.57-25.4 817.02-25.1L817.02-25.1Q815.77-26.1 813.65-26.85 811.52-27.6 809.02-27.6L809.02-27.6Q806.12-27.6 804.42-26.33 802.72-25.05 802.72-22.85L802.72-22.85Q802.72-21.1 803.95-20 805.17-18.9 807.92-18.1L807.92-18.1 810.97-17.2Q814.92-16.1 817.2-14 819.47-11.9 819.47-8.2L819.47-8.2Q819.47-4.25 816.6-1.8 813.72 0.65 808.52 0.65L808.52 0.65Q805.47 0.65 803.2-0.03 800.92-0.7 799.65-1.73 798.37-2.75 798.37-3.75L798.37-3.75Q798.37-4.6 798.9-5.18 799.42-5.75 800.12-6L800.12-6Q801.27-4.9 803.37-3.83 805.47-2.75 808.52-2.75ZM826.27-1.6L826.27-18.1 830.37-18.1 830.37-0.1Q830.07 0 829.57 0.13 829.07 0.25 828.47 0.25L828.47 0.25Q827.37 0.25 826.82-0.2 826.27-0.65 826.27-1.6L826.27-1.6ZM830.37-28.8L830.37-14.75 826.27-14.75 826.27-30.3Q826.52-30.4 827.05-30.53 827.57-30.65 828.17-30.65L828.17-30.65Q829.27-30.65 829.82-30.23 830.37-29.8 830.37-28.8L830.37-28.8ZM845.97-1.6L845.97-18.1 850.07-18.1 850.07-0.1Q849.77 0 849.27 0.13 848.77 0.25 848.17 0.25L848.17 0.25Q847.07 0.25 846.52-0.2 845.97-0.65 845.97-1.6L845.97-1.6ZM850.07-28.8L850.07-14.75 845.97-14.75 845.97-30.3Q846.22-30.4 846.75-30.53 847.27-30.65 847.87-30.65L847.87-30.65Q848.97-30.65 849.52-30.23 850.07-29.8 850.07-28.8L850.07-28.8ZM848.12-17.1L848.12-13.7 828.72-13.7 828.72-17.1 848.12-17.1ZM858.97-2.2L858.97-18.3 863.02-18.3 863.02-0.4Q862.82-0.35 862.27-0.18 861.72 0 861.17 0L861.17 0Q860.17 0 859.57-0.63 858.97-1.25 858.97-2.2L858.97-2.2ZM863.02-30L863.02-12.4 858.97-12.45 858.97-28.2Q858.97-29.2 859.57-29.8 860.17-30.4 861.17-30.4L861.17-30.4Q861.72-30.4 862.27-30.25 862.82-30.1 863.02-30L863.02-30ZM875.12-13.9L861.17-13.9 861.17-17.3 876.22-17.3Q876.37-17.1 876.52-16.65 876.67-16.2 876.67-15.7L876.67-15.7Q876.67-14.9 876.27-14.4 875.87-13.9 875.12-13.9L875.12-13.9ZM876.92 0L861.17 0 861.17-3.4 878.02-3.4Q878.17-3.2 878.32-2.78 878.47-2.35 878.47-1.8L878.47-1.8Q878.47-1 878.07-0.5 877.67 0 876.92 0L876.92 0ZM876.67-26.95L861.17-26.95 861.17-30.4 877.77-30.4Q877.92-30.2 878.07-29.75 878.22-29.3 878.22-28.8L878.22-28.8Q878.22-28 877.82-27.48 877.42-26.95 876.67-26.95L876.67-26.95ZM893.92-2.75L893.92-2.75Q897.27-2.75 898.99-4.28 900.72-5.8 900.72-8.2L900.72-8.2Q900.72-10.25 899.39-11.6 898.07-12.95 895.22-13.75L895.22-13.75 890.87-15.05Q888.77-15.7 887.22-16.73 885.67-17.75 884.84-19.28 884.02-20.8 884.02-22.85L884.02-22.85Q884.02-26.7 886.82-28.88 889.62-31.05 894.27-31.05L894.27-31.05Q896.97-31.05 899.09-30.48 901.22-29.9 902.44-29 903.67-28.1 903.67-27.1L903.67-27.1Q903.67-26.45 903.32-25.93 902.97-25.4 902.42-25.1L902.42-25.1Q901.17-26.1 899.04-26.85 896.92-27.6 894.42-27.6L894.42-27.6Q891.52-27.6 889.82-26.33 888.12-25.05 888.12-22.85L888.12-22.85Q888.12-21.1 889.34-20 890.57-18.9 893.32-18.1L893.32-18.1 896.37-17.2Q900.32-16.1 902.59-14 904.87-11.9 904.87-8.2L904.87-8.2Q904.87-4.25 901.99-1.8 899.12 0.65 893.92 0.65L893.92 0.65Q890.87 0.65 888.59-0.03 886.32-0.7 885.04-1.73 883.77-2.75 883.77-3.75L883.77-3.75Q883.77-4.6 884.29-5.18 884.82-5.75 885.52-6L885.52-6Q886.67-4.9 888.77-3.83 890.87-2.75 893.92-2.75Z" opacity="1" transform="matrix(1,0,0,1,0,0)" fill="#00d1cd" class="slogan-text-1" data-fill-palette-color="secondary" id="text-1"></path></svg></g></svg></g></svg></g></svg></g><g transform="matrix(1,0,0,1,448.6128817302208,23.380234904512463)"><svg viewBox="0 0 244.43135999999998 244.43135999999998" height="244.43135999999998" width="244.43135999999998"><g data-palette-color="#00d1cd"><rect width="66.8112384" height="244.43135999999998" fill="#00d1cd" stroke="transparent" data-fill-palette-color="accent" x="0" fill-opacity="1"></rect><rect width="66.8112384" height="244.43135999999998" fill="#00d1cd" stroke="transparent" data-fill-palette-color="accent" x="81.47711999999999" fill-opacity="0.75"></rect><rect width="66.8112384" height="244.43135999999998" fill="#00d1cd" stroke="transparent" data-fill-palette-color="accent" x="162.95423999999997" fill-opacity="0.5"></rect></g></svg></g></svg></g><defs></defs></svg><rect width="395.52" height="166.18303073773788" fill="none" stroke="none" visibility="hidden"></rect></g></svg></g></svg>